<svg version="1.1" id="Layer_1" xmlns="http://www.w3.org/2000/svg" xmlns:xlink="http://www.w3.org/1999/xlink" x="0px" y="0px"
	 width="100%" viewBox="0 0 398 398" enable-background="new 0 0 398 398" xml:space="preserve">
<path fill="#F6F7F6" opacity="1.000000" stroke="none" 
	d="
M399.000000,149.000000 
	C399.000000,232.666672 399.000000,315.833344 399.000000,399.000000 
	C266.333344,399.000000 133.666672,399.000000 1.000000,399.000000 
	C1.000000,266.333344 1.000000,133.666672 1.000000,1.000000 
	C133.666672,1.000000 266.333344,1.000000 399.000000,1.000000 
	C399.000000,50.166668 399.000000,99.333336 399.000000,149.000000 
M176.836075,237.796204 
	C175.389206,250.932327 173.942337,264.068451 172.082596,277.817657 
	C170.496063,291.101807 168.909531,304.385986 167.158096,318.444702 
	C165.685257,331.297424 164.212418,344.150146 161.937683,356.989380 
	C156.767685,358.992218 151.004898,360.135132 146.564331,363.196167 
	C139.619125,367.983704 135.100067,368.450958 129.055603,362.518005 
	C122.634811,356.215729 116.189407,349.930450 109.978142,343.424500 
	C98.321129,331.214508 75.565926,330.713593 64.760117,340.568939 
	C56.772915,347.853577 48.897652,355.300140 41.468010,363.143921 
	C36.020657,368.894928 30.016197,371.760193 22.024126,371.110962 
	C16.148949,370.633698 10.203839,371.017365 4.455503,371.017365 
	C4.455503,380.530640 4.455503,389.092529 4.455503,397.602417 
	C135.114655,397.602417 265.318878,397.602417 395.997925,397.602417 
	C395.997925,388.913727 395.835480,380.608978 396.072601,372.315674 
	C396.177155,368.657623 394.733795,367.847351 391.401978,367.897156 
	C380.573944,368.058990 369.741760,367.918701 358.911530,367.971588 
	C353.284393,367.999084 348.554382,366.101501 344.583801,362.080505 
	C337.676727,355.085846 330.531403,348.321045 323.756439,341.202454 
	C310.018829,326.768097 286.577209,326.245544 272.104095,341.364563 
	C264.961914,348.825470 257.531219,356.009918 250.248978,363.337219 
	C246.861053,366.746155 242.811020,368.143280 238.298492,366.551788 
	C236.464447,350.378723 234.630402,334.205658 232.884781,317.206512 
	C231.185699,303.792023 229.486618,290.377502 227.859756,276.117432 
	C226.234222,263.078400 224.608704,250.039352 223.046494,236.130249 
	C222.697754,233.028564 222.387680,229.921936 221.993179,226.826080 
	C220.684357,216.555222 219.345154,206.288239 218.163010,195.121628 
	C217.211426,186.357834 216.259842,177.594040 215.857544,169.184937 
	C233.350357,186.880707 250.843185,204.576477 268.517090,222.455444 
	C272.465942,218.682953 275.794708,215.502884 280.156860,211.335541 
	C280.156860,218.657333 280.102783,224.303238 280.194305,229.946808 
	C280.217621,231.384537 280.203491,233.302948 281.053558,234.172516 
	C289.120941,242.424774 297.371185,250.498276 305.631531,258.685364 
	C308.308655,256.016541 310.759735,253.573059 313.916382,250.761917 
	C314.668457,251.014297 316.045532,251.211380 316.073547,251.527847 
	C316.293152,254.009796 316.167633,256.519745 316.314941,259.011230 
	C316.549561,262.980743 315.422943,268.186005 317.500305,270.675385 
	C323.805756,278.231476 331.371521,284.735962 338.661560,291.860291 
	C346.205536,271.532227 346.470337,251.312912 340.429626,230.914078 
	C333.959839,209.066284 321.191528,191.333191 304.734314,175.922318 
	C294.317139,166.167480 282.368347,158.770248 270.815430,152.136765 
	C279.707184,152.136765 288.598938,152.136765 297.978882,152.136765 
	C297.978882,147.066513 297.978882,142.850708 297.978882,137.999878 
	C299.140900,138.782013 299.802521,139.013992 300.132416,139.480515 
	C308.887787,151.862076 321.375763,153.824036 335.205292,152.147766 
	C336.516174,151.988876 337.863037,152.126572 339.193176,152.126572 
	C342.436554,152.126572 345.679932,152.126572 349.594971,152.126572 
	C349.594971,146.941040 349.594971,142.638931 349.594971,137.671127 
	C353.850372,141.287796 357.356750,144.267883 361.233215,147.822830 
	C363.159119,149.279221 365.028839,151.897171 367.020569,151.993530 
	C376.283875,152.441742 385.580963,152.192001 396.157776,152.192001 
	C393.633484,147.549973 391.847931,143.680145 389.552734,140.140778 
	C374.338623,116.679146 352.502045,102.790810 325.507294,96.871277 
	C312.143005,93.940689 298.549377,92.763596 283.990417,94.788048 
	C276.678375,96.029732 269.355316,97.210869 262.058624,98.537010 
	C258.024872,99.270142 254.035263,100.246216 250.076294,100.412865 
	C255.918579,94.396744 261.760864,88.380623 268.428131,81.514992 
	C264.555267,78.329460 261.244202,75.605980 257.933105,72.882500 
	C258.159546,72.238464 258.385986,71.594429 258.612427,70.950394 
	C264.194458,70.950394 269.778381,71.031136 275.357239,70.898613 
	C276.923950,70.861389 278.941711,70.695564 279.960876,69.742279 
	C288.300018,61.942070 296.451721,53.941475 305.640106,45.054115 
	C301.235229,41.487801 297.775787,38.686916 294.316315,35.886028 
	C294.567230,35.268623 294.818146,34.651215 295.069061,34.033810 
	C300.635925,34.033810 306.208282,34.173794 311.766479,33.954433 
	C313.599518,33.882092 315.863159,33.388676 317.131165,32.220695 
	C323.962402,25.928425 330.542267,19.363287 337.880554,12.240312 
	C322.255157,6.561908 307.435730,4.304315 291.186615,6.947186 
	C287.121246,7.762856 282.987610,8.331650 279.001648,9.434389 
	C253.705414,16.432724 233.546341,31.284912 217.571625,51.598373 
	C210.145050,61.042030 204.557526,71.931961 197.922516,81.461029 
	C197.474350,80.567825 197.045456,79.664352 196.575287,78.782890 
	C175.802536,39.839516 146.374771,12.265305 100.686256,6.486590 
	C86.804405,4.730804 73.257446,6.820496 59.590847,12.085561 
	C65.668716,18.400997 71.397827,24.158958 76.883560,30.140131 
	C79.456009,32.944908 82.272400,34.209568 86.094597,34.027248 
	C91.273895,33.780193 96.473816,33.965782 103.056320,33.965782 
	C98.692215,38.649254 95.588516,41.980083 91.755653,46.093441 
	C99.632706,53.650314 106.968216,60.915291 114.607300,67.845642 
	C116.372093,69.446709 119.123192,70.562332 121.511688,70.751984 
	C126.887924,71.178879 132.321320,70.885918 137.731461,70.885918 
	C137.878662,71.368279 138.025864,71.850639 138.173065,72.333000 
	C135.146286,75.503929 132.119507,78.674866 128.749802,82.205048 
	C133.447891,86.890060 137.959427,91.270676 142.309036,95.806580 
	C143.451630,96.998123 144.092529,98.670769 144.167709,100.208588 
	C125.274139,94.616936 106.075638,92.672691 86.443321,95.002220 
	C60.747002,98.051308 38.453732,108.011375 20.623009,127.070206 
	C13.920895,134.233948 8.338519,142.192505 4.386565,152.174118 
	C13.538284,152.174118 21.970036,152.370956 30.381891,152.048599 
	C32.762611,151.957397 35.484161,150.844635 37.354172,149.337677 
	C41.689014,145.844391 45.599361,141.824356 50.744576,137.026932 
	C50.744576,142.865112 50.744576,147.373291 50.744576,152.174515 
	C60.270302,152.174515 69.092728,151.806412 77.866287,152.302521 
	C83.824760,152.639450 88.397903,151.205536 92.301117,146.592117 
	C94.973526,143.433456 98.348885,140.869507 102.483002,137.047791 
	C102.483002,143.092453 102.483002,147.494843 102.483002,152.254166 
	C111.639374,152.254166 120.282677,152.254166 128.466995,152.723892 
	C110.302719,161.316849 94.737206,173.335190 81.798317,188.662857 
	C61.336193,212.902756 50.922684,240.475082 55.144009,272.531372 
	C55.992542,278.975037 58.049896,285.259552 59.725155,292.360229 
	C66.808151,285.372192 73.081680,279.435852 79.002869,273.166748 
	C80.523552,271.556702 81.578590,268.940430 81.727158,266.711731 
	C82.106293,261.023987 81.853455,255.294113 81.853455,249.581085 
	C82.561844,249.225861 83.270241,248.870636 83.978630,248.515411 
	C86.789696,252.141785 89.600754,255.768158 91.908310,258.744995 
	C100.727654,250.323441 108.837776,242.696609 116.753349,234.872940 
	C117.750389,233.887482 117.992363,231.889191 118.124062,230.321518 
	C118.615974,224.465988 118.916397,218.594376 119.288658,212.728790 
	C119.737755,212.433807 120.186844,212.138824 120.635933,211.843842 
	C122.636208,214.261490 124.354401,217.033035 126.755936,218.947250 
	C127.953598,219.901886 131.158798,220.133896 132.156738,219.240906 
	C137.232620,214.698822 141.883881,209.682114 146.682938,204.830750 
	C159.179016,192.198410 171.674667,179.565643 184.698120,167.497147 
	C184.601990,169.127686 184.554108,170.762756 184.401627,172.388000 
	C183.632812,180.581467 182.836746,188.772354 181.539551,197.587952 
	C180.044220,210.726486 178.548904,223.865005 176.836075,237.796204 
z"/>
<path fill="#FFD2AC" opacity="1.000000" stroke="none" 
	d="
M238.053635,367.515533 
	C242.811020,368.143280 246.861053,366.746155 250.248978,363.337219 
	C257.531219,356.009918 264.961914,348.825470 272.104095,341.364563 
	C286.577209,326.245544 310.018829,326.768097 323.756439,341.202454 
	C330.531403,348.321045 337.676727,355.085846 344.583801,362.080505 
	C348.554382,366.101501 353.284393,367.999084 358.911530,367.971588 
	C369.741760,367.918701 380.573944,368.058990 391.401978,367.897156 
	C394.733795,367.847351 396.177155,368.657623 396.072601,372.315674 
	C395.835480,380.608978 395.997925,388.913727 395.997925,397.602417 
	C265.318878,397.602417 135.114655,397.602417 4.455503,397.602417 
	C4.455503,389.092529 4.455503,380.530640 4.455503,371.017365 
	C10.203839,371.017365 16.148949,370.633698 22.024126,371.110962 
	C30.016197,371.760193 36.020657,368.894928 41.468010,363.143921 
	C48.897652,355.300140 56.772915,347.853577 64.760117,340.568939 
	C75.565926,330.713593 98.321129,331.214508 109.978142,343.424500 
	C116.189407,349.930450 122.634811,356.215729 129.055603,362.518005 
	C135.100067,368.450958 139.619125,367.983704 146.564331,363.196167 
	C151.004898,360.135132 156.767685,358.992218 162.710419,357.114044 
	C168.317978,359.631958 173.139969,362.051697 177.993179,364.407104 
	C180.348557,365.550262 182.726883,367.391327 185.156403,367.496765 
	C192.438766,367.812744 199.751480,367.429291 207.498322,367.462219 
	C217.980743,367.575592 228.017197,367.545563 238.053635,367.515533 
M81.965958,364.511627 
	C84.794594,361.712219 85.157570,358.373657 82.153305,355.982605 
	C80.568443,354.721222 76.240517,354.235291 75.432449,355.237915 
	C73.861771,357.186768 72.766228,360.826538 73.539192,363.046783 
	C74.671394,366.298859 78.094589,366.883270 81.965958,364.511627 
M273.862640,373.041290 
	C270.098724,374.032837 269.597900,377.099548 270.214905,380.037537 
	C270.530884,381.542358 272.408447,383.466034 273.906708,383.820526 
	C277.042419,384.562347 280.307007,384.241699 280.979462,379.913330 
	C281.710236,375.209778 279.999817,373.325928 273.862640,373.041290 
M310.046997,355.499542 
	C307.066040,356.662445 305.165131,358.874725 306.186554,361.971649 
	C306.811005,363.864990 308.626678,366.044098 310.425385,366.723602 
	C313.692169,367.957642 316.148895,366.299194 316.905273,362.688080 
	C317.802673,358.403748 316.096191,356.336761 310.046997,355.499542 
z"/>
<path fill="#8CE670" opacity="1.000000" stroke="none" 
	d="
M184.170502,166.933060 
	C171.674667,179.565643 159.179016,192.198410 146.682938,204.830750 
	C141.883881,209.682114 137.232620,214.698822 132.156738,219.240906 
	C131.158798,220.133896 127.953598,219.901886 126.755936,218.947250 
	C124.354401,217.033035 122.636208,214.261490 120.635933,211.843842 
	C120.186844,212.138824 119.737755,212.433807 119.288658,212.728790 
	C118.916397,218.594376 118.615974,224.465988 118.124062,230.321518 
	C117.992363,231.889191 117.750389,233.887482 116.753349,234.872940 
	C108.837776,242.696609 100.727654,250.323441 91.908310,258.744995 
	C89.600754,255.768158 86.789696,252.141785 83.978630,248.515411 
	C83.270241,248.870636 82.561844,249.225861 81.853455,249.581085 
	C81.853455,255.294113 82.106293,261.023987 81.727158,266.711731 
	C81.578590,268.940430 80.523552,271.556702 79.002869,273.166748 
	C73.081680,279.435852 66.808151,285.372192 59.725155,292.360229 
	C58.049896,285.259552 55.992542,278.975037 55.144009,272.531372 
	C50.922684,240.475082 61.336193,212.902756 81.798317,188.662857 
	C94.737206,173.335190 110.302719,161.316849 129.076996,152.394684 
	C139.964508,149.718063 150.141525,146.636734 160.545410,145.212219 
	C173.072769,143.496994 185.169235,147.000931 197.152954,151.205231 
	C197.890564,151.783585 198.477798,152.150131 198.744934,152.690643 
	C193.673386,157.554108 188.921951,162.243591 184.170502,166.933060 
z"/>
<path fill="#1AB589" opacity="1.000000" stroke="none" 
	d="
M197.002563,150.993408 
	C185.169235,147.000931 173.072769,143.496994 160.545410,145.212219 
	C150.141525,146.636734 139.964508,149.718063 129.306488,152.159821 
	C120.282677,152.254166 111.639374,152.254166 102.483002,152.254166 
	C102.483002,147.494843 102.483002,143.092453 102.483002,137.047791 
	C98.348885,140.869507 94.973526,143.433456 92.301117,146.592117 
	C88.397903,151.205536 83.824760,152.639450 77.866287,152.302521 
	C69.092728,151.806412 60.270302,152.174515 50.744576,152.174515 
	C50.744576,147.373291 50.744576,142.865112 50.744576,137.026932 
	C45.599361,141.824356 41.689014,145.844391 37.354172,149.337677 
	C35.484161,150.844635 32.762611,151.957397 30.381891,152.048599 
	C21.970036,152.370956 13.538284,152.174118 4.386565,152.174118 
	C8.338519,142.192505 13.920895,134.233948 20.623009,127.070206 
	C38.453732,108.011375 60.747002,98.051308 86.443321,95.002220 
	C106.075638,92.672691 125.274139,94.616936 144.584747,100.136826 
	C145.001770,100.065071 144.940262,100.034531 145.051361,100.357864 
	C145.792313,100.948822 146.422134,101.216446 147.330597,101.671455 
	C153.400040,104.672180 159.386032,107.148659 164.941849,110.367584 
	C177.267853,117.509026 186.037827,128.290237 194.069534,140.206970 
	C195.483063,143.690018 196.742752,146.844406 197.786346,150.109558 
	C197.300369,150.418777 197.111145,150.676483 197.002563,150.993408 
z"/>
<path fill="#8CE671" opacity="1.000000" stroke="none" 
	d="
M193.915695,139.878311 
	C186.037827,128.290237 177.267853,117.509026 164.941849,110.367584 
	C159.386032,107.148659 153.400040,104.672180 147.218872,101.304123 
	C146.199081,100.511108 145.569672,100.272820 144.940262,100.034531 
	C144.940262,100.034531 145.001770,100.065071 144.982788,100.093781 
	C144.092529,98.670769 143.451630,96.998123 142.309036,95.806580 
	C137.959427,91.270676 133.447891,86.890060 128.749802,82.205048 
	C132.119507,78.674866 135.146286,75.503929 138.173065,72.333000 
	C138.025864,71.850639 137.878662,71.368279 137.731461,70.885918 
	C132.321320,70.885918 126.887924,71.178879 121.511688,70.751984 
	C119.123192,70.562332 116.372093,69.446709 114.607300,67.845642 
	C106.968216,60.915291 99.632706,53.650314 91.755653,46.093441 
	C95.588516,41.980083 98.692215,38.649254 103.056320,33.965782 
	C96.473816,33.965782 91.273895,33.780193 86.094597,34.027248 
	C82.272400,34.209568 79.456009,32.944908 76.883560,30.140131 
	C71.397827,24.158958 65.668716,18.400997 59.590847,12.085561 
	C73.257446,6.820496 86.804405,4.730804 100.686256,6.486590 
	C146.374771,12.265305 175.802536,39.839516 196.575287,78.782890 
	C197.045456,79.664352 197.474350,80.567825 198.029358,82.194260 
	C193.127090,96.875809 190.593613,111.158463 192.244461,126.423164 
	C192.753113,131.179642 193.334396,135.528976 193.915695,139.878311 
z"/>
<path fill="#8CE670" opacity="1.000000" stroke="none" 
	d="
M250.025742,101.112762 
	C254.035263,100.246216 258.024872,99.270142 262.058624,98.537010 
	C269.355316,97.210869 276.678375,96.029732 284.712463,95.119957 
	C288.355591,95.973824 291.299438,96.392868 294.194061,97.034103 
	C316.292633,101.929527 335.159271,112.581123 349.962006,129.714111 
	C354.406433,134.858261 357.273468,141.365295 360.863129,147.247971 
	C357.356750,144.267883 353.850372,141.287796 349.594971,137.671127 
	C349.594971,142.638931 349.594971,146.941040 349.594971,152.126572 
	C345.679932,152.126572 342.436554,152.126572 339.193176,152.126572 
	C337.863037,152.126572 336.516174,151.988876 335.205292,152.147766 
	C321.375763,153.824036 308.887787,151.862076 300.132416,139.480515 
	C299.802521,139.013992 299.140900,138.782013 297.978882,137.999878 
	C297.978882,142.850708 297.978882,147.066513 297.978882,152.136765 
	C288.598938,152.136765 279.707184,152.136765 269.961243,152.128235 
	C262.773712,150.252060 256.538177,147.372147 250.084625,146.748611 
	C239.823029,145.757156 229.416031,146.270828 218.678467,146.146133 
	C213.292999,147.587982 208.318939,149.106049 203.290100,150.413422 
	C202.262543,150.680557 201.029419,150.156952 200.070862,149.692627 
	C207.646851,132.710724 219.159760,119.599693 234.625748,109.990402 
	C239.655884,106.865097 244.886703,104.062790 250.025742,101.112762 
z"/>
<path fill="#11A97E" opacity="1.000000" stroke="none" 
	d="
M219.070526,146.147888 
	C229.416031,146.270828 239.823029,145.757156 250.084625,146.748611 
	C256.538177,147.372147 262.773712,150.252060 269.483856,152.128983 
	C282.368347,158.770248 294.317139,166.167480 304.734314,175.922318 
	C321.191528,191.333191 333.959839,209.066284 340.429626,230.914078 
	C346.470337,251.312912 346.205536,271.532227 338.661560,291.860291 
	C331.371521,284.735962 323.805756,278.231476 317.500305,270.675385 
	C315.422943,268.186005 316.549561,262.980743 316.314941,259.011230 
	C316.167633,256.519745 316.293152,254.009796 316.073547,251.527847 
	C316.045532,251.211380 314.668457,251.014297 313.248962,250.671936 
	C312.305206,248.296631 312.174286,245.982681 311.730835,243.730240 
	C303.751007,203.197189 279.473175,175.025162 244.052246,155.734009 
	C236.287781,151.505295 227.426636,149.290268 219.070526,146.147888 
z"/>
<path fill="#1BB58A" opacity="1.000000" stroke="none" 
	d="
M218.678467,146.146149 
	C227.426636,149.290268 236.287781,151.505295 244.052246,155.734009 
	C279.473175,175.025162 303.751007,203.197189 311.730835,243.730240 
	C312.174286,245.982681 312.305206,248.296631 312.896210,250.855759 
	C310.759735,253.573059 308.308655,256.016541 305.631531,258.685364 
	C297.371185,250.498276 289.120941,242.424774 281.053558,234.172516 
	C280.203491,233.302948 280.217621,231.384537 280.194305,229.946808 
	C280.102783,224.303238 280.156860,218.657333 280.156860,211.335541 
	C275.794708,215.502884 272.465942,218.682953 268.517090,222.455444 
	C250.843185,204.576477 233.350357,186.880707 215.396286,168.727661 
	C209.645035,163.019150 204.355026,157.767914 199.065033,152.516663 
	C198.477798,152.150131 197.890564,151.783585 197.152954,151.205231 
	C197.111145,150.676483 197.300369,150.418777 198.101349,150.110107 
	C199.051987,149.999222 199.471512,149.998535 199.891052,149.997833 
	C201.029419,150.156952 202.262543,150.680557 203.290100,150.413422 
	C208.318939,149.106049 213.292999,147.587982 218.678467,146.146149 
z"/>
<path fill="#1AB589" opacity="1.000000" stroke="none" 
	d="
M192.317093,126.016022 
	C190.593613,111.158463 193.127090,96.875809 198.136276,82.546890 
	C204.557526,71.931961 210.145050,61.042030 217.571625,51.598373 
	C233.546341,31.284912 253.705414,16.432724 279.001648,9.434389 
	C282.987610,8.331650 287.121246,7.762856 291.834778,7.285349 
	C296.313477,8.958200 300.143982,10.292888 304.811768,11.919327 
	C303.270111,13.795159 302.351776,15.093039 301.253937,16.215305 
	C297.647003,19.902437 293.656769,23.265440 290.405945,27.237598 
	C286.035919,32.577347 280.926361,35.022564 273.985565,34.080460 
	C270.521423,33.610260 266.940735,33.998592 263.412781,33.998592 
	C263.305023,34.441608 263.197296,34.884624 263.089539,35.327644 
	C266.097046,38.517403 269.104523,41.707157 272.295776,45.091808 
	C266.833710,50.940319 261.397125,56.103638 256.752625,61.901436 
	C250.969528,69.120544 244.140839,72.653633 234.801376,71.069550 
	C232.077698,70.607582 229.209335,70.998535 226.407303,70.998535 
	C226.000275,71.818489 225.593246,72.638451 225.186203,73.458405 
	C227.456284,75.136597 229.730133,76.809723 231.995590,78.494141 
	C235.471878,81.078857 235.349045,83.308662 232.173645,86.469810 
	C221.224228,97.370056 210.620422,108.616631 199.790787,119.638741 
	C197.504395,121.965759 194.818771,123.900520 192.317093,126.016022 
z"/>
<path fill="#11A97E" opacity="1.000000" stroke="none" 
	d="
M192.244461,126.423164 
	C194.818771,123.900520 197.504395,121.965759 199.790787,119.638741 
	C210.620422,108.616631 221.224228,97.370056 232.173645,86.469810 
	C235.349045,83.308662 235.471878,81.078857 231.995590,78.494141 
	C229.730133,76.809723 227.456284,75.136597 225.186203,73.458405 
	C225.593246,72.638451 226.000275,71.818489 226.407303,70.998535 
	C229.209335,70.998535 232.077698,70.607582 234.801376,71.069550 
	C244.140839,72.653633 250.969528,69.120544 256.752625,61.901436 
	C261.397125,56.103638 266.833710,50.940319 272.295776,45.091808 
	C269.104523,41.707157 266.097046,38.517403 263.089539,35.327644 
	C263.197296,34.884624 263.305023,34.441608 263.412781,33.998592 
	C266.940735,33.998592 270.521423,33.610260 273.985565,34.080460 
	C280.926361,35.022564 286.035919,32.577347 290.405945,27.237598 
	C293.656769,23.265440 297.647003,19.902437 301.253937,16.215305 
	C302.351776,15.093039 303.270111,13.795159 304.811768,11.919327 
	C300.143982,10.292888 296.313477,8.958200 292.252716,7.351345 
	C307.435730,4.304315 322.255157,6.561908 337.880554,12.240312 
	C330.542267,19.363287 323.962402,25.928425 317.131165,32.220695 
	C315.863159,33.388676 313.599518,33.882092 311.766479,33.954433 
	C306.208282,34.173794 300.635925,34.033810 295.069061,34.033810 
	C294.818146,34.651215 294.567230,35.268623 294.316315,35.886028 
	C297.775787,38.686916 301.235229,41.487801 305.640106,45.054115 
	C296.451721,53.941475 288.300018,61.942070 279.960876,69.742279 
	C278.941711,70.695564 276.923950,70.861389 275.357239,70.898613 
	C269.778381,71.031136 264.194458,70.950394 258.612427,70.950394 
	C258.385986,71.594429 258.159546,72.238464 257.933105,72.882500 
	C261.244202,75.605980 264.555267,78.329460 268.428131,81.514992 
	C261.760864,88.380623 255.918579,94.396744 250.051025,100.762817 
	C244.886703,104.062790 239.655884,106.865097 234.625748,109.990402 
	C219.159760,119.599693 207.646851,132.710724 200.070862,149.692612 
	C199.471512,149.998535 199.051987,149.999222 198.317444,149.999344 
	C196.742752,146.844406 195.483063,143.690018 194.069534,140.206970 
	C193.334396,135.528976 192.753113,131.179642 192.244461,126.423164 
z"/>
<path fill="#C6672A" opacity="1.000000" stroke="none" 
	d="
M207.052338,367.318817 
	C199.751480,367.429291 192.438766,367.812744 185.156403,367.496765 
	C182.726883,367.391327 180.348557,365.550262 177.993179,364.407104 
	C173.139969,362.051697 168.317978,359.631958 163.111359,357.120789 
	C164.212418,344.150146 165.685257,331.297424 167.758469,318.152100 
	C179.234924,317.873810 190.110992,317.888123 200.993835,317.942505 
	C201.000610,317.982513 201.007904,318.063354 201.019241,318.477905 
	C203.037842,335.034576 205.045090,351.176697 207.052338,367.318817 
z"/>
<path fill="#71DE50" opacity="1.000000" stroke="none" 
	d="
M361.048157,147.535400 
	C357.273468,141.365295 354.406433,134.858261 349.962006,129.714111 
	C335.159271,112.581123 316.292633,101.929527 294.194061,97.034103 
	C291.299438,96.392868 288.355591,95.973824 285.150330,95.153381 
	C298.549377,92.763596 312.143005,93.940689 325.507294,96.871277 
	C352.502045,102.790810 374.338623,116.679146 389.552734,140.140778 
	C391.847931,143.680145 393.633484,147.549973 396.157776,152.192001 
	C385.580963,152.192001 376.283875,152.441742 367.020569,151.993530 
	C365.028839,151.897171 363.159119,149.279221 361.048157,147.535400 
z"/>
<path fill="#BA5717" opacity="1.000000" stroke="none" 
	d="
M207.498322,367.462219 
	C205.045090,351.176697 203.037842,335.034576 201.486694,318.455536 
	C212.227325,318.023285 222.511841,318.027924 232.796356,318.032593 
	C234.630402,334.205658 236.464447,350.378723 238.176056,367.033661 
	C228.017197,367.545563 217.980743,367.575592 207.498322,367.462219 
z"/>
<path fill="#E37631" opacity="1.000000" stroke="none" 
	d="
M218.017593,196.019760 
	C219.345154,206.288239 220.684357,216.555222 221.993179,226.826080 
	C222.387680,229.921936 222.697754,233.028564 222.547394,236.564896 
	C212.040848,237.011948 202.033386,237.024353 191.761826,237.012024 
	C191.321655,236.973236 191.145584,236.959198 190.980560,236.497131 
	C190.900848,233.577850 190.966415,231.089127 190.692230,228.638382 
	C189.507004,218.043961 188.222366,207.460663 187.299118,196.614594 
	C197.755432,196.243851 207.886505,196.131805 218.017593,196.019760 
z"/>
<path fill="#E37631" opacity="1.000000" stroke="none" 
	d="
M232.840576,317.619568 
	C222.511841,318.027924 212.227325,318.023285 201.475357,318.040985 
	C201.007904,318.063354 201.000610,317.982513 200.996338,317.516785 
	C200.938034,315.723907 200.958496,314.388794 200.818344,313.070770 
	C199.544083,301.088318 198.241791,289.108887 197.418137,277.089783 
	C207.854889,277.021667 217.821228,276.992340 227.787537,276.963013 
	C229.486618,290.377502 231.185699,303.792023 232.840576,317.619568 
z"/>
<path fill="#BA5717" opacity="1.000000" stroke="none" 
	d="
M227.823654,276.540222 
	C217.821228,276.992340 207.854889,277.021667 197.180679,277.053864 
	C196.472794,277.056732 195.994797,277.003387 195.995911,276.564453 
	C195.804169,274.336517 195.600815,272.548584 195.420166,270.758301 
	C194.285965,259.518097 193.156784,248.277328 192.025940,237.036743 
	C202.033386,237.024353 212.040848,237.011948 222.515747,236.999939 
	C224.608704,250.039352 226.234222,263.078400 227.823654,276.540222 
z"/>
<path fill="#BB5818" opacity="1.000000" stroke="none" 
	d="
M218.090302,195.570694 
	C207.886505,196.131805 197.755432,196.243851 186.889526,196.624603 
	C184.786560,196.916916 183.418411,196.940552 182.050262,196.964172 
	C182.836746,188.772354 183.632812,180.581467 184.401627,172.388000 
	C184.554108,170.762756 184.601990,169.127686 184.434311,167.215103 
	C188.921951,162.243591 193.673386,157.554108 198.744934,152.690643 
	C204.355026,157.767914 209.645035,163.019150 215.121643,168.550323 
	C216.259842,177.594040 217.211426,186.357834 218.090302,195.570694 
z"/>
<path fill="#E68346" opacity="1.000000" stroke="none" 
	d="
M195.994797,277.003357 
	C195.994797,277.003387 196.472794,277.056732 196.710251,277.092651 
	C198.241791,289.108887 199.544083,301.088318 200.818344,313.070770 
	C200.958496,314.388794 200.938034,315.723907 200.989578,317.476776 
	C190.110992,317.888123 179.234924,317.873810 167.840912,317.764801 
	C168.909531,304.385986 170.496063,291.101807 172.803970,277.460052 
	C181.015167,277.069427 188.504974,277.036407 195.994797,277.003357 
z"/>
<path fill="#C56629" opacity="1.000000" stroke="none" 
	d="
M195.995911,276.564453 
	C188.504974,277.036407 181.015167,277.069427 173.010406,277.153503 
	C173.942337,264.068451 175.389206,250.932327 177.405487,237.391907 
	C182.306442,236.973450 186.637970,236.959290 190.969498,236.945145 
	C191.145584,236.959198 191.321655,236.973236 191.761826,237.012024 
	C193.156784,248.277328 194.285965,259.518097 195.420166,270.758301 
	C195.600815,272.548584 195.804169,274.336517 195.995911,276.564453 
z"/>
<path fill="#E68447" opacity="1.000000" stroke="none" 
	d="
M190.980560,236.497131 
	C186.637970,236.959290 182.306442,236.973450 177.514252,236.995575 
	C178.548904,223.865005 180.044220,210.726486 181.794907,197.276062 
	C183.418411,196.940552 184.786560,196.916916 186.564301,196.883301 
	C188.222366,207.460663 189.507004,218.043961 190.692230,228.638382 
	C190.966415,231.089127 190.900848,233.577850 190.980560,236.497131 
z"/>
<path fill="#F3B077" opacity="1.000000" stroke="none" 
	d="
M81.670769,364.772217 
	C78.094589,366.883270 74.671394,366.298859 73.539192,363.046783 
	C72.766228,360.826538 73.861771,357.186768 75.432449,355.237915 
	C76.240517,354.235291 80.568443,354.721222 82.153305,355.982605 
	C85.157570,358.373657 84.794594,361.712219 81.670769,364.772217 
z"/>
<path fill="#F3B076" opacity="1.000000" stroke="none" 
	d="
M274.274658,373.016846 
	C279.999817,373.325928 281.710236,375.209778 280.979462,379.913330 
	C280.307007,384.241699 277.042419,384.562347 273.906708,383.820526 
	C272.408447,383.466034 270.530884,381.542358 270.214905,380.037537 
	C269.597900,377.099548 270.098724,374.032837 274.274658,373.016846 
z"/>
<path fill="#F3B077" opacity="1.000000" stroke="none" 
	d="
M310.403137,355.362579 
	C316.096191,356.336761 317.802673,358.403748 316.905273,362.688080 
	C316.148895,366.299194 313.692169,367.957642 310.425385,366.723602 
	C308.626678,366.044098 306.811005,363.864990 306.186554,361.971649 
	C305.165131,358.874725 307.066040,356.662445 310.403137,355.362579 
z"/>
<path fill="#F6F7F6" opacity="1.000000" stroke="none" 
	d="
M145.051361,100.357864 
	C145.569672,100.272820 146.199081,100.511108 146.940231,101.116730 
	C146.422134,101.216446 145.792313,100.948822 145.051361,100.357864 
z"/>
</svg>